<mxfile host="app.diagrams.net" agent="Mozilla/5.0 (Windows NT 10.0; Win64; x64; rv:130.0) Gecko/20100101 Firefox/130.0" version="24.7.16">
  <diagram id="C5RBs43oDa-KdzZeNtuy" name="Page-1">
    <mxGraphModel dx="2410" dy="514" grid="1" gridSize="10" guides="1" tooltips="1" connect="1" arrows="1" fold="1" page="1" pageScale="1" pageWidth="827" pageHeight="1169" math="0" shadow="0">
      <root>
        <mxCell id="WIyWlLk6GJQsqaUBKTNV-0" />
        <mxCell id="WIyWlLk6GJQsqaUBKTNV-1" parent="WIyWlLk6GJQsqaUBKTNV-0" />
        <mxCell id="HIrjXlR3BVrKwoBECTqW-5" style="edgeStyle=orthogonalEdgeStyle;rounded=0;orthogonalLoop=1;jettySize=auto;html=1;exitX=0.5;exitY=1;exitDx=0;exitDy=0;entryX=0.5;entryY=0;entryDx=0;entryDy=0;" edge="1" parent="WIyWlLk6GJQsqaUBKTNV-1" source="HIrjXlR3BVrKwoBECTqW-0" target="HIrjXlR3BVrKwoBECTqW-1">
          <mxGeometry relative="1" as="geometry" />
        </mxCell>
        <mxCell id="HIrjXlR3BVrKwoBECTqW-0" value="Load BIke Price Data into Memory" style="rounded=1;whiteSpace=wrap;html=1;" vertex="1" parent="WIyWlLk6GJQsqaUBKTNV-1">
          <mxGeometry x="294" y="170" width="126" height="40" as="geometry" />
        </mxCell>
        <mxCell id="HIrjXlR3BVrKwoBECTqW-6" style="edgeStyle=orthogonalEdgeStyle;rounded=0;orthogonalLoop=1;jettySize=auto;html=1;exitX=0.5;exitY=1;exitDx=0;exitDy=0;entryX=0.5;entryY=0;entryDx=0;entryDy=0;" edge="1" parent="WIyWlLk6GJQsqaUBKTNV-1" source="HIrjXlR3BVrKwoBECTqW-1" target="HIrjXlR3BVrKwoBECTqW-3">
          <mxGeometry relative="1" as="geometry" />
        </mxCell>
        <mxCell id="HIrjXlR3BVrKwoBECTqW-1" value="Tell the program that Normal Mode is on." style="rounded=1;whiteSpace=wrap;html=1;" vertex="1" parent="WIyWlLk6GJQsqaUBKTNV-1">
          <mxGeometry x="241.5" y="220" width="231" height="30" as="geometry" />
        </mxCell>
        <mxCell id="HIrjXlR3BVrKwoBECTqW-7" style="edgeStyle=orthogonalEdgeStyle;rounded=0;orthogonalLoop=1;jettySize=auto;html=1;exitX=0.5;exitY=1;exitDx=0;exitDy=0;entryX=0.5;entryY=0;entryDx=0;entryDy=0;" edge="1" parent="WIyWlLk6GJQsqaUBKTNV-1" source="HIrjXlR3BVrKwoBECTqW-3" target="HIrjXlR3BVrKwoBECTqW-4">
          <mxGeometry relative="1" as="geometry" />
        </mxCell>
        <mxCell id="HIrjXlR3BVrKwoBECTqW-3" value="Tell the program that Passcodes are not loaded" style="rounded=1;whiteSpace=wrap;html=1;" vertex="1" parent="WIyWlLk6GJQsqaUBKTNV-1">
          <mxGeometry x="241.5" y="260" width="231" height="30" as="geometry" />
        </mxCell>
        <mxCell id="HIrjXlR3BVrKwoBECTqW-9" style="edgeStyle=orthogonalEdgeStyle;rounded=0;orthogonalLoop=1;jettySize=auto;html=1;exitX=0.5;exitY=1;exitDx=0;exitDy=0;entryX=0.5;entryY=0;entryDx=0;entryDy=0;" edge="1" parent="WIyWlLk6GJQsqaUBKTNV-1" source="HIrjXlR3BVrKwoBECTqW-4" target="HIrjXlR3BVrKwoBECTqW-8">
          <mxGeometry relative="1" as="geometry" />
        </mxCell>
        <mxCell id="HIrjXlR3BVrKwoBECTqW-4" value="&lt;div style=&quot;font-size: 12px;&quot;&gt;&lt;font style=&quot;font-size: 12px;&quot;&gt;Tell the Program to&amp;nbsp;&lt;/font&gt;&lt;/div&gt;&lt;div style=&quot;font-size: 12px;&quot;&gt;&lt;font style=&quot;font-size: 12px;&quot;&gt;run continuously&lt;/font&gt;&lt;/div&gt;&lt;div style=&quot;font-size: 12px;&quot;&gt;&lt;font style=&quot;font-size: 12px;&quot;&gt;&lt;font style=&quot;font-size: 12px;&quot;&gt;(while True)&lt;/font&gt;&lt;font style=&quot;font-size: 12px;&quot;&gt;&lt;br&gt;&lt;/font&gt;&lt;/font&gt;&lt;/div&gt;" style="rhombus;whiteSpace=wrap;html=1;fontSize=8;" vertex="1" parent="WIyWlLk6GJQsqaUBKTNV-1">
          <mxGeometry x="271" y="320" width="172" height="110" as="geometry" />
        </mxCell>
        <mxCell id="HIrjXlR3BVrKwoBECTqW-11" style="edgeStyle=orthogonalEdgeStyle;rounded=0;orthogonalLoop=1;jettySize=auto;html=1;exitX=0.5;exitY=1;exitDx=0;exitDy=0;entryX=0.5;entryY=0;entryDx=0;entryDy=0;" edge="1" parent="WIyWlLk6GJQsqaUBKTNV-1" source="HIrjXlR3BVrKwoBECTqW-8" target="HIrjXlR3BVrKwoBECTqW-10">
          <mxGeometry relative="1" as="geometry" />
        </mxCell>
        <mxCell id="HIrjXlR3BVrKwoBECTqW-8" value="Tell the program that Normal Mode Menu is not loaded" style="rounded=1;whiteSpace=wrap;html=1;" vertex="1" parent="WIyWlLk6GJQsqaUBKTNV-1">
          <mxGeometry x="241.5" y="450" width="231" height="30" as="geometry" />
        </mxCell>
        <mxCell id="HIrjXlR3BVrKwoBECTqW-16" style="edgeStyle=orthogonalEdgeStyle;rounded=0;orthogonalLoop=1;jettySize=auto;html=1;exitX=0.5;exitY=1;exitDx=0;exitDy=0;entryX=0.5;entryY=0;entryDx=0;entryDy=0;" edge="1" parent="WIyWlLk6GJQsqaUBKTNV-1" source="HIrjXlR3BVrKwoBECTqW-10" target="HIrjXlR3BVrKwoBECTqW-15">
          <mxGeometry relative="1" as="geometry" />
        </mxCell>
        <mxCell id="HIrjXlR3BVrKwoBECTqW-116" style="edgeStyle=orthogonalEdgeStyle;rounded=0;orthogonalLoop=1;jettySize=auto;html=1;exitX=1;exitY=0.5;exitDx=0;exitDy=0;entryX=0;entryY=0.5;entryDx=0;entryDy=0;" edge="1" parent="WIyWlLk6GJQsqaUBKTNV-1" source="HIrjXlR3BVrKwoBECTqW-10" target="HIrjXlR3BVrKwoBECTqW-115">
          <mxGeometry relative="1" as="geometry" />
        </mxCell>
        <mxCell id="HIrjXlR3BVrKwoBECTqW-10" value="&lt;font style=&quot;font-size: 14px;&quot;&gt;while Normal Mode is on&lt;br&gt;&lt;/font&gt;" style="rhombus;whiteSpace=wrap;html=1;fontSize=8;" vertex="1" parent="WIyWlLk6GJQsqaUBKTNV-1">
          <mxGeometry x="297.5" y="510" width="119" height="90" as="geometry" />
        </mxCell>
        <mxCell id="HIrjXlR3BVrKwoBECTqW-18" style="edgeStyle=orthogonalEdgeStyle;rounded=0;orthogonalLoop=1;jettySize=auto;html=1;exitX=0.5;exitY=1;exitDx=0;exitDy=0;entryX=0.5;entryY=0;entryDx=0;entryDy=0;" edge="1" parent="WIyWlLk6GJQsqaUBKTNV-1" source="HIrjXlR3BVrKwoBECTqW-15" target="HIrjXlR3BVrKwoBECTqW-17">
          <mxGeometry relative="1" as="geometry" />
        </mxCell>
        <mxCell id="HIrjXlR3BVrKwoBECTqW-37" style="edgeStyle=orthogonalEdgeStyle;rounded=0;orthogonalLoop=1;jettySize=auto;html=1;exitX=0;exitY=0.5;exitDx=0;exitDy=0;entryX=0.5;entryY=0;entryDx=0;entryDy=0;" edge="1" parent="WIyWlLk6GJQsqaUBKTNV-1" source="HIrjXlR3BVrKwoBECTqW-15">
          <mxGeometry relative="1" as="geometry">
            <mxPoint x="359" y="820" as="targetPoint" />
            <Array as="points">
              <mxPoint x="220" y="685" />
              <mxPoint x="220" y="800" />
              <mxPoint x="359" y="800" />
            </Array>
          </mxGeometry>
        </mxCell>
        <mxCell id="HIrjXlR3BVrKwoBECTqW-15" value="&lt;div style=&quot;font-size: 12px;&quot;&gt;&lt;font style=&quot;font-size: 12px;&quot;&gt;if Normal Mode Menu &lt;br&gt;&lt;/font&gt;&lt;/div&gt;&lt;div style=&quot;font-size: 12px;&quot;&gt;&lt;font style=&quot;font-size: 12px;&quot;&gt;&lt;font style=&quot;font-size: 12px;&quot;&gt;not loaded&lt;/font&gt;&lt;br&gt;&lt;/font&gt;&lt;/div&gt;" style="rhombus;whiteSpace=wrap;html=1;fontSize=8;" vertex="1" parent="WIyWlLk6GJQsqaUBKTNV-1">
          <mxGeometry x="279.5" y="640" width="159" height="90" as="geometry" />
        </mxCell>
        <mxCell id="HIrjXlR3BVrKwoBECTqW-33" style="edgeStyle=orthogonalEdgeStyle;rounded=0;orthogonalLoop=1;jettySize=auto;html=1;exitX=0.5;exitY=1;exitDx=0;exitDy=0;entryX=0.5;entryY=0;entryDx=0;entryDy=0;" edge="1" parent="WIyWlLk6GJQsqaUBKTNV-1" source="HIrjXlR3BVrKwoBECTqW-17">
          <mxGeometry relative="1" as="geometry">
            <mxPoint x="359" y="820" as="targetPoint" />
          </mxGeometry>
        </mxCell>
        <mxCell id="HIrjXlR3BVrKwoBECTqW-17" value="Load the Menu and tell the program that the menu has been loaded" style="rounded=1;whiteSpace=wrap;html=1;" vertex="1" parent="WIyWlLk6GJQsqaUBKTNV-1">
          <mxGeometry x="243.5" y="750" width="231" height="30" as="geometry" />
        </mxCell>
        <mxCell id="HIrjXlR3BVrKwoBECTqW-83" style="edgeStyle=orthogonalEdgeStyle;rounded=0;orthogonalLoop=1;jettySize=auto;html=1;exitX=0.5;exitY=1;exitDx=0;exitDy=0;entryX=0.5;entryY=0;entryDx=0;entryDy=0;" edge="1" parent="WIyWlLk6GJQsqaUBKTNV-1" source="HIrjXlR3BVrKwoBECTqW-85" target="HIrjXlR3BVrKwoBECTqW-86">
          <mxGeometry relative="1" as="geometry" />
        </mxCell>
        <mxCell id="HIrjXlR3BVrKwoBECTqW-84" style="edgeStyle=orthogonalEdgeStyle;rounded=0;orthogonalLoop=1;jettySize=auto;html=1;exitX=0;exitY=0.5;exitDx=0;exitDy=0;entryX=0.5;entryY=0;entryDx=0;entryDy=0;" edge="1" parent="WIyWlLk6GJQsqaUBKTNV-1" source="HIrjXlR3BVrKwoBECTqW-85" target="HIrjXlR3BVrKwoBECTqW-88">
          <mxGeometry relative="1" as="geometry" />
        </mxCell>
        <mxCell id="HIrjXlR3BVrKwoBECTqW-85" value="If Passcode Manager access code is entered" style="rhombus;whiteSpace=wrap;html=1;" vertex="1" parent="WIyWlLk6GJQsqaUBKTNV-1">
          <mxGeometry x="-611.5" y="415" width="301" height="80" as="geometry" />
        </mxCell>
        <mxCell id="HIrjXlR3BVrKwoBECTqW-86" value="Tell the Program that Normal Mode is off" style="rounded=1;whiteSpace=wrap;html=1;" vertex="1" parent="WIyWlLk6GJQsqaUBKTNV-1">
          <mxGeometry x="-576.5" y="525" width="231" height="30" as="geometry" />
        </mxCell>
        <mxCell id="HIrjXlR3BVrKwoBECTqW-87" style="edgeStyle=orthogonalEdgeStyle;rounded=0;orthogonalLoop=1;jettySize=auto;html=1;exitX=0.5;exitY=1;exitDx=0;exitDy=0;entryX=0.5;entryY=0;entryDx=0;entryDy=0;" edge="1" parent="WIyWlLk6GJQsqaUBKTNV-1" source="HIrjXlR3BVrKwoBECTqW-88" target="HIrjXlR3BVrKwoBECTqW-91">
          <mxGeometry relative="1" as="geometry" />
        </mxCell>
        <mxCell id="HIrjXlR3BVrKwoBECTqW-88" value="Checks if the input is a valid bike number" style="rounded=1;whiteSpace=wrap;html=1;" vertex="1" parent="WIyWlLk6GJQsqaUBKTNV-1">
          <mxGeometry x="-850" y="525" width="231" height="30" as="geometry" />
        </mxCell>
        <mxCell id="HIrjXlR3BVrKwoBECTqW-89" style="edgeStyle=orthogonalEdgeStyle;rounded=0;orthogonalLoop=1;jettySize=auto;html=1;exitX=0.5;exitY=1;exitDx=0;exitDy=0;" edge="1" parent="WIyWlLk6GJQsqaUBKTNV-1" source="HIrjXlR3BVrKwoBECTqW-91" target="HIrjXlR3BVrKwoBECTqW-92">
          <mxGeometry relative="1" as="geometry" />
        </mxCell>
        <mxCell id="HIrjXlR3BVrKwoBECTqW-90" style="edgeStyle=orthogonalEdgeStyle;rounded=0;orthogonalLoop=1;jettySize=auto;html=1;exitX=0;exitY=0.5;exitDx=0;exitDy=0;" edge="1" parent="WIyWlLk6GJQsqaUBKTNV-1" source="HIrjXlR3BVrKwoBECTqW-91" target="HIrjXlR3BVrKwoBECTqW-93">
          <mxGeometry relative="1" as="geometry" />
        </mxCell>
        <mxCell id="HIrjXlR3BVrKwoBECTqW-91" value="If the input is valid" style="rhombus;whiteSpace=wrap;html=1;" vertex="1" parent="WIyWlLk6GJQsqaUBKTNV-1">
          <mxGeometry x="-799.5" y="585" width="130" height="80" as="geometry" />
        </mxCell>
        <mxCell id="HIrjXlR3BVrKwoBECTqW-92" value="Output the rental rate" style="rounded=1;whiteSpace=wrap;html=1;" vertex="1" parent="WIyWlLk6GJQsqaUBKTNV-1">
          <mxGeometry x="-850" y="685" width="231" height="30" as="geometry" />
        </mxCell>
        <mxCell id="HIrjXlR3BVrKwoBECTqW-93" value="Output that the user " style="rounded=1;whiteSpace=wrap;html=1;" vertex="1" parent="WIyWlLk6GJQsqaUBKTNV-1">
          <mxGeometry x="-1100" y="685" width="231" height="30" as="geometry" />
        </mxCell>
        <mxCell id="HIrjXlR3BVrKwoBECTqW-99" style="edgeStyle=orthogonalEdgeStyle;rounded=0;orthogonalLoop=1;jettySize=auto;html=1;exitX=0.5;exitY=1;exitDx=0;exitDy=0;entryX=0.5;entryY=0;entryDx=0;entryDy=0;" edge="1" parent="WIyWlLk6GJQsqaUBKTNV-1" source="HIrjXlR3BVrKwoBECTqW-95" target="HIrjXlR3BVrKwoBECTqW-98">
          <mxGeometry relative="1" as="geometry" />
        </mxCell>
        <mxCell id="HIrjXlR3BVrKwoBECTqW-113" style="edgeStyle=orthogonalEdgeStyle;rounded=0;orthogonalLoop=1;jettySize=auto;html=1;exitX=0;exitY=0.5;exitDx=0;exitDy=0;entryX=0;entryY=0.5;entryDx=0;entryDy=0;" edge="1" parent="WIyWlLk6GJQsqaUBKTNV-1" source="HIrjXlR3BVrKwoBECTqW-95" target="HIrjXlR3BVrKwoBECTqW-10">
          <mxGeometry relative="1" as="geometry">
            <Array as="points">
              <mxPoint x="140" y="900" />
              <mxPoint x="140" y="555" />
            </Array>
          </mxGeometry>
        </mxCell>
        <mxCell id="HIrjXlR3BVrKwoBECTqW-95" value="&lt;div style=&quot;font-size: 11px;&quot;&gt;&lt;font style=&quot;font-size: 11px;&quot;&gt;Run a function that asks user for input,&amp;nbsp;&lt;/font&gt;&lt;/div&gt;&lt;div style=&quot;font-size: 11px;&quot;&gt;&lt;font style=&quot;font-size: 11px;&quot;&gt;return true if that input is the passcode,&amp;nbsp;&lt;/font&gt;&lt;/div&gt;&lt;div style=&quot;font-size: 11px;&quot;&gt;&lt;font style=&quot;font-size: 11px;&quot;&gt;else validate if the input is a valid bike number,&amp;nbsp;&lt;/font&gt;&lt;/div&gt;&lt;div style=&quot;font-size: 11px;&quot;&gt;&lt;font style=&quot;font-size: 11px;&quot;&gt;else ask the user for the input again.&lt;/font&gt;&lt;/div&gt;&lt;div style=&quot;font-size: 11px;&quot;&gt;&lt;font style=&quot;font-size: 11px;&quot;&gt;&lt;br&gt;&lt;/font&gt;&lt;/div&gt;&lt;div style=&quot;font-size: 11px;&quot;&gt;&lt;font style=&quot;font-size: 11px;&quot;&gt;&lt;font style=&quot;font-size: 11px;&quot;&gt;If the function returns&lt;b&gt; true&lt;/b&gt;:&lt;/font&gt;&lt;font style=&quot;font-size: 11px;&quot;&gt;&lt;br&gt;&lt;/font&gt;&lt;/font&gt;&lt;/div&gt;" style="rhombus;whiteSpace=wrap;html=1;fontSize=8;" vertex="1" parent="WIyWlLk6GJQsqaUBKTNV-1">
          <mxGeometry x="182" y="820" width="354" height="160" as="geometry" />
        </mxCell>
        <mxCell id="HIrjXlR3BVrKwoBECTqW-114" style="edgeStyle=orthogonalEdgeStyle;rounded=0;orthogonalLoop=1;jettySize=auto;html=1;exitX=0.5;exitY=1;exitDx=0;exitDy=0;entryX=0;entryY=0.5;entryDx=0;entryDy=0;" edge="1" parent="WIyWlLk6GJQsqaUBKTNV-1" target="HIrjXlR3BVrKwoBECTqW-10">
          <mxGeometry relative="1" as="geometry">
            <mxPoint x="279.98" y="555" as="targetPoint" />
            <mxPoint x="338.98" y="1025" as="sourcePoint" />
            <Array as="points">
              <mxPoint x="360" y="1025" />
              <mxPoint x="360" y="1045" />
              <mxPoint x="140" y="1045" />
              <mxPoint x="140" y="555" />
            </Array>
          </mxGeometry>
        </mxCell>
        <mxCell id="HIrjXlR3BVrKwoBECTqW-98" value="Tell the program that Normal Mode is off" style="rounded=1;whiteSpace=wrap;html=1;" vertex="1" parent="WIyWlLk6GJQsqaUBKTNV-1">
          <mxGeometry x="243.5" y="1000" width="231" height="30" as="geometry" />
        </mxCell>
        <mxCell id="HIrjXlR3BVrKwoBECTqW-115" value="Load Encrypted Passcode Data into Memory" style="rounded=1;whiteSpace=wrap;html=1;" vertex="1" parent="WIyWlLk6GJQsqaUBKTNV-1">
          <mxGeometry x="510" y="540" width="150" height="30" as="geometry" />
        </mxCell>
      </root>
    </mxGraphModel>
  </diagram>
</mxfile>
